<svg viewBox="0 0 200 200" xmlns="http://www.w3.org/2000/svg" width="100%">
    <defs>
      <linearGradient id="grad1" x1="0%" y1="0%" x2="100%" y2="0%">
        <stop offset="0%" style="stop-color:#2f67d7;stop-opacity:1" />
        <stop offset="30%" style="stop-color:#003fbd;stop-opacity:1" />
        <stop offset="40%" style="stop-color:#003fbd;stop-opacity:1" />
        <stop offset="100%" style="stop-color:#000c24;stop-opacity:1" />
      </linearGradient>
    </defs>
    <path fill="url(#grad1)" d="M50,-70.4C61.5,-60.5,65.2,-41.5,70.9,-23.2C76.6,-4.9,84.3,12.5,77.9,23.2C71.6,34,51.1,38.1,35.8,43.3C20.4,48.5,10.2,54.8,-0.8,55.9C-11.7,56.9,-23.5,52.7,-33.2,45.6C-42.9,38.6,-50.6,28.8,-57.6,16.6C-64.5,4.3,-70.7,-10.3,-68,-23.2C-65.4,-36.1,-53.9,-47.2,-41.1,-56.6C-28.3,-66,-14.1,-73.7,2.6,-77.3C19.3,-80.8,38.6,-80.2,50,-70.4Z;"/>
</svg>
  