<svg width="22" height="23" viewBox="0 0 22 23" xmlns="http://www.w3.org/2000/svg">
<path d="M14.6526 21.9659C14.0526 21.9659 13.6526 21.5659 13.6526 20.9659V16.6659C13.6526 15.8659 13.6526 15.8659 13.3526 15.5659C13.0526 15.2659 12.9526 14.8659 13.1526 14.5659C13.2526 14.1659 13.6526 13.9659 13.9526 13.8659C16.7526 13.5659 19.3526 12.6659 19.3526 8.1659C19.3526 7.0659 18.9526 6.0659 18.1526 5.2659C17.8526 4.9659 17.7526 4.5659 17.9526 4.1659C18.1526 3.6659 18.2526 3.2659 18.2526 2.7659C18.2526 2.4659 18.2526 2.2659 18.1526 1.9659C17.6526 2.0659 16.7526 2.3659 15.4526 3.1659C15.2526 3.2659 14.9526 3.3659 14.6526 3.2659C12.4526 2.7659 10.2526 2.7659 8.0526 3.2659C7.7526 3.3659 7.5526 3.2659 7.2526 3.1659C5.7526 2.3659 4.8526 2.0659 4.3526 1.9659C4.3526 2.2659 4.2526 2.5659 4.2526 2.7659C4.2526 3.2659 4.3526 3.7659 4.5526 4.1659C4.6526 4.5659 4.5526 4.9659 4.3526 5.2659C3.9526 5.6659 3.6526 6.1659 3.4526 6.6659C3.2526 7.1659 3.1526 7.6659 3.1526 8.2659C3.1526 12.4659 5.3526 13.5659 8.5526 13.9659C8.9526 13.9659 9.2526 14.2659 9.3526 14.6659C9.4526 15.0659 9.3526 15.4659 9.1526 15.6659C8.8526 15.9659 8.8526 16.1659 8.8526 17.0659V18.7659V18.8659V21.0659C8.8526 21.6659 8.4526 22.0659 7.8526 22.0659C7.2526 22.0659 6.8526 21.6659 6.8526 21.0659V20.0659C3.8526 20.4659 2.6526 18.7659 1.7526 17.5659C1.3526 17.0659 1.0526 16.5659 0.752596 16.4659C0.252596 16.3659 -0.147404 15.7659 0.0525961 15.2659C0.252596 14.7659 0.752596 14.3659 1.2526 14.5659C2.2526 14.8659 2.8526 15.6659 3.4526 16.4659C4.2526 17.5659 4.9526 18.5659 6.8526 18.1659V17.2659C6.8526 16.8659 6.7526 16.3659 6.8526 15.7659C4.0526 15.1659 1.1526 13.5659 1.1526 8.3659C1.1526 7.5659 1.3526 6.7659 1.6526 6.0659C1.8526 5.5659 2.1526 4.9659 2.5526 4.5659C2.4526 4.0659 2.3526 3.5659 2.3526 2.9659C2.3526 2.1659 2.5526 1.4659 2.8526 0.765896C2.9526 0.265896 3.1526 0.0658962 3.4526 0.0658962C3.7526 -0.0341038 5.1526 -0.234104 7.8526 1.3659C10.0526 0.865896 12.3526 0.865896 14.5526 1.3659C17.2526 -0.234104 18.5526 -0.0341038 18.9526 0.0658962C19.2526 0.165896 19.4526 0.365896 19.5526 0.565896C19.9526 1.2659 20.0526 1.9659 20.1526 2.7659C20.1526 3.2659 20.1526 3.8659 19.9526 4.3659C20.8526 5.4659 21.3526 6.7659 21.3526 8.1659C21.3526 13.4659 18.3526 15.0659 15.6526 15.6659C15.7526 15.9659 15.7526 16.3659 15.6526 16.6659V20.9659C15.6526 21.5659 15.1526 21.9659 14.6526 21.9659Z"/>
</svg>
