<svg width="1037" height="759" viewBox="0 0 1037 759" fill="none" xmlns="http://www.w3.org/2000/svg">
<path fill-rule="evenodd" clip-rule="evenodd" d="M-34.0093 96.2219C-69.3354 33.8484 -98.0022 66.7645 -34.0094 24.8624C37.7665 -22.1361 141.652 5.08495 230.004 -9.70717C277.657 -17.6854 328.885 -18.8386 368.921 -42.5973C428.541 -77.9783 865.818 -179.132 936.437 -165.797C1012.29 -151.473 1118.59 244.233 936.437 244.233C815.449 244.233 925.528 321.738 829.829 321.738C753.65 321.738 989.493 542.254 853.134 542.254C752.398 542.254 809.995 448.247 750.989 448.247C687.201 448.247 788.49 625.511 695.453 643.261C622.068 657.262 595.177 415.601 531.823 465.248C444.484 533.692 537.453 773.921 422.24 758.269C326.541 745.268 383.11 536.41 282.906 516.752C137.622 488.25 212.433 731.733 100.929 745.268C-6.17445 758.269 -3.91231 470.599 -18.5707 376.242C-34.6301 272.866 10.4163 174.662 -34.0093 96.2219Z" fill="#000C24"/>
</svg>
