<svg width="1054" height="761" viewBox="0 0 1054 761" fill="none" xmlns="http://www.w3.org/2000/svg">
<path fill-rule="evenodd" clip-rule="evenodd" d="M-88.8259 194.266C-124.448 126.468 -69.0963 30.0068 -4.56796 -15.5397C67.8086 -66.6257 172.564 -37.0373 261.655 -53.1159C309.707 -61.788 361.364 -63.0415 401.735 -88.8666C461.854 -127.325 477.63 -251.323 548.84 -236.828C625.328 -221.259 574.147 -70.8106 644.823 -39.3863C724.581 -3.92415 819.449 -104.607 903.478 -79.1484C977.474 -56.7294 1059.98 12.1069 1053.66 84.481C1046.34 168.225 903.512 189.142 873.141 268.237C848.364 332.763 962.341 425.476 905.887 469.315C839.651 520.75 716.068 385.854 652.184 439.819C564.115 514.215 676.555 723.393 563.808 758.284C464.918 788.887 485.514 551.403 386.159 522.144C285.498 492.501 30.5537 722.273 -44.5653 653.062C-121.888 581.821 81.0585 457.334 41.1938 362.997C3.86364 274.657 -44.0285 279.529 -88.8259 194.266Z" fill="#000C24"/>
</svg>
