<svg width="98" height="87" viewBox="0 0 98 87" fill="none" xmlns="http://www.w3.org/2000/svg">
<path fill-rule="evenodd" clip-rule="evenodd" d="M70.3333 40.4677C78.1262 48.1788 93.8579 47.7436 97.7418 58.0332C100.064 64.1863 86.1264 64.2594 79.6618 65.1818C74.34 65.9412 67.7367 59.1379 63.8398 62.8707C57.8107 68.6458 65.096 88.9285 57.0395 86.8514C47.4421 84.3769 56.5192 63.1114 47.6349 58.6927C40.5325 55.1603 35.5998 76.5008 28.6247 72.7192C22.1944 69.2329 40.3872 56.4099 34.764 51.7146C26.1568 44.5276 10.7575 56.5251 1.56198 50.1218C-3.6512 46.4916 5.84867 38.0253 5.93204 31.6373C6.03355 23.8601 -4.16564 13.3618 2.10093 8.82699C10.3431 2.86245 21.9161 11.8829 32.0241 12.7556C36.3352 13.1278 40.6214 13.2228 44.892 12.5213C48.6682 11.901 51.8599 9.06849 55.6808 8.86978C59.6197 8.66493 63.2529 11.9847 67.1486 11.3638C76.4215 9.88588 91.5493 -6.40075 93.7507 2.80205C96.6455 14.9036 78.8448 22.2987 72.2873 32.846C70.8932 35.0884 68.46 38.614 70.3333 40.4677Z" fill="white"/>
</svg>
