<svg width="21" height="20" viewBox="0 0 21 20" xmlns="http://www.w3.org/2000/svg">
<g clip-path="url(#clip0_3_188)">
<path d="M20.3476 20L20.3526 19.9992V12.6642C20.3526 9.07581 19.5801 6.31165 15.3851 6.31165C13.3684 6.31165 12.0151 7.41831 11.4626 8.46748H11.4043V6.64665H7.42676V19.9992H11.5684V13.3875C11.5684 11.6467 11.8984 9.96332 14.0543 9.96332C16.1784 9.96332 16.2101 11.95 16.2101 13.4992V20H20.3476Z"/>
<path d="M0.682495 6.64746H4.82916V20H0.682495V6.64746Z"/>
<path d="M2.75421 0C1.42837 0 0.352539 1.07583 0.352539 2.40167C0.352539 3.7275 1.42837 4.82583 2.75421 4.82583C4.08004 4.82583 5.15587 3.7275 5.15587 2.40167C5.15504 1.07583 4.07921 0 2.75421 0Z"/>
</g>
<defs>
<clipPath id="clip0_3_188">
<rect width="20" height="20" transform="translate(0.352539)"/>
</clipPath>
</defs>
</svg>
