<svg width="56" height="56" viewBox="0 0 56 56" fill="none" xmlns="http://www.w3.org/2000/svg">
<path d="M15.5 40.0745V26.186C15.5 24.601 15.9709 23.0516 16.8529 21.7346L19.5066 17.7719C20.9917 15.5543 23.4848 14.2234 26.1537 14.2234H30.056C32.3042 14.2234 34.4487 15.1694 35.9644 16.8299L40.1942 21.4635C41.5397 22.9375 42.2857 24.8612 42.2857 26.857V44.5094V45C42.2857 49.4183 38.704 53 34.2857 53H11C6.58171 53 3 49.4183 3 45V11C3 6.58172 6.58172 3 11 3H44.3333C48.6623 3 52.2059 6.44347 52.33 10.7707L52.764 25.9027C52.8932 30.409 49.2754 34.1321 44.7673 34.1321H15.5" stroke="currentColor" stroke-width="6" stroke-linecap="round"/>
</svg>
