<svg width="23" height="22" viewBox="0 0 23 22" xmlns="http://www.w3.org/2000/svg">
<path d="M11.4001 5.9434H10.2696C10.2234 5.9434 10.1773 5.93909 10.1319 5.93052C9.5357 5.81803 9.31864 5.07687 9.75995 4.66054L12.9001 1.69811L13.429 1.27041C14.4456 0.448425 15.7133 0 17.0206 0H17.1193C17.8969 0 18.6648 0.172026 19.3681 0.503746C20.2394 0.914761 20.9815 1.55673 21.5135 2.35989L21.5821 2.46342C21.9888 3.07723 22.2504 3.77556 22.3471 4.50547C22.4477 5.26462 22.3671 6.03679 22.112 6.75883L22.0519 6.92907C21.755 7.76926 21.262 8.52653 20.6138 9.13802L15.9008 13.5843C14.937 14.4935 13.6621 15 12.3371 15C11.1485 15 9.99593 14.5923 9.07173 13.845L8.57553 13.4437C8.45936 13.3498 8.35924 13.2376 8.27907 13.1115L8.24001 13.0501C7.83768 12.4175 8.04751 11.577 8.69995 11.2076C8.89671 11.0963 9.11895 11.0377 9.34505 11.0377H9.42978C9.73708 11.0377 10.0381 11.1245 10.2983 11.2881L10.8001 11.6038L11.4557 12.0676C11.8099 12.3183 12.2331 12.4528 12.667 12.4528C13.2021 12.4528 13.7169 12.2483 14.1061 11.8811L18.8014 7.4516C19.2541 7.02451 19.5508 6.45809 19.6439 5.84273L19.6585 5.7466C19.7498 5.14354 19.6198 4.5278 19.2925 4.01314C19.0362 3.61014 18.6708 3.28808 18.2389 3.08432L17.8555 2.90348C17.3664 2.67278 16.8136 2.61476 16.2872 2.73889C16.0309 2.79934 15.7864 2.90174 15.5634 3.04194L15.2703 3.22631C15.0904 3.33944 14.9188 3.46526 14.7568 3.6028L12.4575 5.55506C12.1622 5.80576 11.7875 5.9434 11.4001 5.9434Z"/>
<path d="M11.0999 15.9565H12.2304C12.2766 15.9565 12.3227 15.9608 12.3681 15.9694C12.9643 16.0819 13.1814 16.823 12.7401 17.2394L9.59988 20.2018L9.07095 20.6295C8.05443 21.4515 6.78671 21.8999 5.47943 21.8999H5.38066C4.60311 21.8999 3.83518 21.7279 3.13194 21.3962C2.26058 20.9851 1.51854 20.3432 0.986451 19.54L0.917857 19.4365C0.511209 18.8227 0.249615 18.1243 0.152902 17.3944C0.0523138 16.6353 0.132875 15.8631 0.387996 15.1411L0.448148 14.9708C0.745015 14.1306 1.238 13.3734 1.88618 12.7619L6.59924 8.3156C7.56303 7.40636 8.83792 6.8999 10.1629 6.8999C11.3515 6.8999 12.5041 7.3076 13.4283 8.05494L13.9245 8.45618C14.0406 8.55011 14.1408 8.6623 14.2209 8.78835L14.26 8.84976C14.6623 9.48236 14.4525 10.323 13.8001 10.6923C13.6033 10.8036 13.381 10.8622 13.1549 10.8622H13.0702C12.7629 10.8622 12.4619 10.7754 12.2017 10.6118L11.6999 10.2961L11.0443 9.83226C10.6901 9.58165 10.2669 9.44707 9.83299 9.44707C9.29792 9.44707 8.78308 9.65159 8.39388 10.0188L3.69858 14.4483C3.24586 14.8754 2.94924 15.4418 2.85606 16.0572L2.8415 16.1533C2.75018 16.7564 2.88019 17.3721 3.20752 17.8868C3.46383 18.2898 3.82916 18.6118 4.26112 18.8156L4.6445 18.9964C5.13358 19.2271 5.68645 19.2851 6.21277 19.161C6.46908 19.1006 6.71364 18.9982 6.93656 18.858L7.22971 18.6736C7.40959 18.5605 7.58118 18.4346 7.74317 18.2971L10.0425 16.3448C10.3378 16.0941 10.7125 15.9565 11.0999 15.9565Z"/>
</svg>
