<svg width="110" height="269" viewBox="0 0 110 269" fill="none" xmlns="http://www.w3.org/2000/svg">
<path d="M108 0C108 13.3547 54 13.3547 54 26.7094C54 40.0641 108 40.0641 108 53.4188C108 66.7735 54 66.7735 54 80.0969C54 93.452 108 93.452 108 106.775C108 120.13 54 120.13 54 133.453C54 146.808 108 146.808 108 160.162C108 173.517 54 173.517 54 186.872C54 200.226 108 200.226 108 213.581C108 226.936 54 226.936 54 240.291C54 253.645 108 253.645 108 267" stroke="#000C24" stroke-width="3" stroke-miterlimit="10" stroke-linecap="round"/>
<path d="M81 0C81 13.3547 27 13.3547 27 26.7094C27 40.0641 81 40.0641 81 53.4188C81 66.7735 27 66.7735 27 80.0969C27 93.452 81 93.452 81 106.775C81 120.13 27 120.13 27 133.453C27 146.808 81 146.808 81 160.162C81 173.517 27 173.517 27 186.872C27 200.226 81 200.226 81 213.581C81 226.936 27 226.936 27 240.291C27 253.645 81 253.645 81 267" stroke="#000C24" stroke-width="3" stroke-miterlimit="10" stroke-linecap="round"/>
<path d="M56 0C56 13.3547 2 13.3547 2 26.7094C2 40.0641 56 40.0641 56 53.4188C56 66.7735 2 66.7735 2 80.0969C2 93.452 56 93.452 56 106.775C56 120.13 1.99999 120.13 1.99999 133.453C1.99999 146.808 56 146.808 56 160.162C56 173.517 1.99999 173.517 1.99999 186.872C1.99999 200.226 56 200.226 56 213.581C56 226.936 1.99999 226.936 1.99999 240.291C1.99999 253.645 56 253.645 56 267" stroke="#000C24" stroke-width="3" stroke-miterlimit="10" stroke-linecap="round"/>
</svg>
