<svg width="58" height="269" viewBox="0 0 58 269" fill="none" xmlns="http://www.w3.org/2000/svg">
<path d="M56 0C56 13.3547 2 13.3547 2 26.7094C2 40.0641 56 40.0641 56 53.4188C56 66.7735 2 66.7735 2 80.0969C2 93.452 56 93.452 56 106.775C56 120.13 1.99999 120.13 1.99999 133.453C1.99999 146.808 56 146.808 56 160.162C56 173.517 1.99999 173.517 1.99999 186.872C1.99999 200.226 56 200.226 56 213.581C56 226.936 1.99999 226.936 1.99999 240.291C1.99999 253.645 56 253.645 56 267" stroke="#000C24" stroke-width="3" stroke-miterlimit="10" stroke-linecap="round"/>
</svg>
