<svg width="36" height="36" viewBox="0 0 36 36" fill="none" xmlns="http://www.w3.org/2000/svg">
<path d="M10 25.7277V17.7143C10 16.1293 10.4709 14.5799 11.3529 13.2629L11.8033 12.5902C13.2293 10.4609 15.6232 9.18298 18.1858 9.18298V9.18298C20.3446 9.18298 22.4037 10.0913 23.8591 11.6857L25.0513 12.9918C26.3969 14.4658 27.1429 16.3895 27.1429 18.3853V28.566V28.566C27.1429 31.5671 24.71 34 21.7089 34H9.99999C5.58171 34 2 30.4183 2 26V10C2 5.58172 5.58172 2 10 2H25.6547C29.9837 2 33.5273 5.44347 33.6514 9.77066L33.764 13.6952C33.8932 18.2015 30.2754 21.9245 25.7673 21.9245H10" stroke="#000C24" stroke-width="4" stroke-linecap="round"/>
</svg>
