<svg viewBox="0 0 200 200" xmlns="http://www.w3.org/2000/svg"><defs><linearGradient id="a" x1="0%" y1="0%" x2="100%" y2="0%"><stop offset="0%" stop-color="#2f67d7"/><stop offset="30%" stop-color="#003fbd"/><stop offset="40%" stop-color="#003fbd"/><stop offset="100%" stop-color="#000c24"/></linearGradient></defs><path fill="url(#a)" d="M50-70.4c11.5 9.9 15.2 28.9 20.9 47.2 5.7 18.3 13.4 35.7 7 46.4C71.6 34 51.1 38.1 35.8 43.3 20.4 48.5 10.2 54.8-.8 55.9c-10.9 1-22.7-3.2-32.4-10.3-9.7-7-17.4-16.8-24.4-29C-64.5 4.3-70.7-10.3-68-23.2c2.6-12.9 14.1-24 26.9-33.4 12.8-9.4 27-17.1 43.7-20.7 16.7-3.5 36-2.9 47.4 6.9z"/></svg>