<svg width="24" height="24" xmlns="http://www.w3.org/2000/svg"><path fill-rule="evenodd" clip-rule="evenodd" d="M6.5 12a5.5 5.5 0 1111 0 5.5 5.5 0 01-11 0zM12 8.5a3.5 3.5 0 100 7 3.5 3.5 0 000-7z"/><path fill-rule="evenodd" clip-rule="evenodd" d="M12 3.25a8.75 8.75 0 000 17.5 1 1 0 110 2C6.063 22.75 1.25 17.937 1.25 12S6.063 1.25 12 1.25 22.75 6.063 22.75 12c0 1.123-.2 2.748-.72 4.129C21.542 17.417 20.564 19 18.75 19c-.89 0-1.773-.233-2.41-.939-.619-.684-.84-1.632-.84-2.686V8.25a1 1 0 112 0v7.125c0 .82.179 1.185.323 1.345.125.138.366.28.927.28.435 0 .957-.383 1.408-1.578.416-1.102.592-2.477.592-3.422A8.75 8.75 0 0012 3.25z"/></svg>