<svg width="1054" height="761" fill="none" xmlns="http://www.w3.org/2000/svg"><path fill-rule="evenodd" clip-rule="evenodd" d="M-88.826 194.266c-35.622-67.798 19.73-164.26 84.258-209.806 72.377-51.086 177.132-21.497 266.223-37.576 48.052-8.672 99.709-9.925 140.08-35.75 60.119-38.459 75.895-162.457 147.105-147.962 76.488 15.569 25.307 166.017 95.983 197.442 79.758 35.462 174.626-65.221 258.655-39.762C977.474-56.73 1059.98 12.107 1053.66 84.48c-7.32 83.744-150.148 104.661-180.519 183.756-24.777 64.526 89.2 157.239 32.746 201.078-66.236 51.435-189.819-83.461-253.703-29.496-88.069 74.396 24.371 283.574-88.376 318.465-98.89 30.603-78.294-206.881-177.649-236.14C285.498 492.501 30.554 722.273-44.565 653.062c-77.323-71.241 125.623-195.728 85.759-290.065-37.33-88.34-85.223-83.468-130.02-168.731z" fill="#000C24"/></svg>