<svg width="1037" height="759" fill="none" xmlns="http://www.w3.org/2000/svg"><path fill-rule="evenodd" clip-rule="evenodd" d="M-34.01 96.222c-35.325-62.374-63.992-29.457 0-71.36C37.767-22.136 141.653 5.085 230.005-9.708c47.653-7.977 98.881-9.13 138.917-32.89 59.62-35.38 496.897-136.534 567.516-123.199 75.853 14.324 182.153 410.03 0 410.03-120.988 0-10.909 77.505-106.608 77.505-76.179 0 159.664 220.516 23.305 220.516-100.736 0-43.139-94.007-102.145-94.007-63.788 0 37.501 177.264-55.536 195.014-73.385 14.001-100.276-227.66-163.63-178.013-87.339 68.444 5.63 308.673-109.583 293.021-95.699-13.001-39.13-221.859-139.334-241.517-145.284-28.502-70.473 214.981-181.977 228.516C-6.174 758.269-3.912 470.599-18.571 376.242c-16.06-103.376 28.987-201.58-15.438-280.02z" fill="#000C24"/></svg>