<svg width="21" height="20" xmlns="http://www.w3.org/2000/svg"><g clip-path="url(#clip0_3_188)"><path d="M20.348 20h.005v-7.336c0-3.588-.773-6.352-4.968-6.352-2.017 0-3.37 1.106-3.922 2.155h-.059v-1.82H7.427v13.352h4.141v-6.611c0-1.741.33-3.425 2.486-3.425 2.124 0 2.156 1.987 2.156 3.536V20h4.138zM.682 6.647H4.83V20H.682V6.647zM2.754 0A2.402 2.402 0 00.353 2.402c0 1.325 1.075 2.424 2.401 2.424 1.326 0 2.402-1.098 2.402-2.424A2.403 2.403 0 002.754 0z"/></g><defs><clipPath id="clip0_3_188"><path transform="translate(.353)" d="M0 0h20v20H0z"/></clipPath></defs></svg>