<svg width="98" height="87" fill="none" xmlns="http://www.w3.org/2000/svg"><path fill-rule="evenodd" clip-rule="evenodd" d="M70.333 40.468c7.793 7.71 23.525 7.276 27.409 17.565 2.322 6.153-11.616 6.226-18.08 7.149-5.322.76-11.925-6.044-15.822-2.311-6.03 5.775 1.256 26.057-6.8 23.98-9.598-2.474-.52-23.74-9.405-28.158C40.533 55.16 35.6 76.5 28.625 72.719c-6.43-3.486 11.762-16.31 6.139-21.004-8.607-7.187-24.007 4.81-33.202-1.593-5.213-3.63 4.287-12.097 4.37-18.485.102-7.777-10.098-18.275-3.831-22.81 8.242-5.965 19.815 3.056 29.923 3.929 4.311.372 8.597.467 12.868-.235 3.776-.62 6.968-3.453 10.789-3.651 3.939-.205 7.572 3.115 11.468 2.494 9.272-1.478 24.4-17.765 26.602-8.562C96.645 14.904 78.845 22.3 72.287 32.846c-1.394 2.242-3.827 5.768-1.954 7.622z" fill="#fff"/></svg>