<svg width="23" height="22" xmlns="http://www.w3.org/2000/svg"><path d="M11.4 5.943h-1.13a.742.742 0 01-.51-1.282l3.14-2.963.529-.428A5.712 5.712 0 0117.021 0h.098a5.271 5.271 0 014.395 2.36l.068.103a4.85 4.85 0 01.53 4.296l-.06.17a5.603 5.603 0 01-1.438 2.209L15.9 13.584a5.193 5.193 0 01-6.83.261l-.495-.401a1.377 1.377 0 01-.297-.333l-.039-.06a1.31 1.31 0 011.105-2.013h.085c.307 0 .608.086.868.25l.502.316.656.464a2.097 2.097 0 002.65-.187l4.695-4.43c.453-.426.75-.993.843-1.608l.015-.096a2.526 2.526 0 00-1.42-2.663l-.384-.18a2.39 2.39 0 00-2.292.138l-.293.184a4.47 4.47 0 00-.513.377l-2.3 1.952c-.295.25-.67.388-1.057.388z"/><path d="M11.1 15.957h1.13a.743.743 0 01.51 1.283L9.6 20.201l-.529.427a5.712 5.712 0 01-3.592 1.27h-.098A5.271 5.271 0 01.986 19.54l-.068-.104a4.851 4.851 0 01-.53-4.295l.06-.17c.297-.84.79-1.598 1.438-2.21L6.6 8.317a5.193 5.193 0 016.83-.261l.495.401c.117.094.217.206.297.332l.039.062a1.31 1.31 0 01-1.105 2.012h-.085c-.307 0-.608-.087-.868-.25l-.502-.316-.656-.464a2.097 2.097 0 00-2.65.187l-4.695 4.43c-.453.426-.75.993-.843 1.608l-.014.096a2.526 2.526 0 001.42 2.663l.383.18a2.39 2.39 0 002.292-.138l.293-.184c.18-.113.351-.24.513-.377l2.3-1.952c.295-.25.67-.388 1.057-.388z"/></svg>