<svg width="110" height="269" fill="none" xmlns="http://www.w3.org/2000/svg"><path d="M108 0c0 13.355-54 13.355-54 26.71 0 13.354 54 13.354 54 26.709S54 66.774 54 80.097c0 13.355 54 13.355 54 26.678 0 13.355-54 13.355-54 26.678 0 13.355 54 13.355 54 26.709 0 13.355-54 13.355-54 26.71 0 13.354 54 13.354 54 26.709s-54 13.355-54 26.71c0 13.354 54 13.354 54 26.709" stroke="#000C24" stroke-width="3" stroke-miterlimit="10" stroke-linecap="round"/><path d="M81 0c0 13.355-54 13.355-54 26.71 0 13.354 54 13.354 54 26.709S27 66.774 27 80.097c0 13.355 54 13.355 54 26.678 0 13.355-54 13.355-54 26.678 0 13.355 54 13.355 54 26.709 0 13.355-54 13.355-54 26.71 0 13.354 54 13.354 54 26.709s-54 13.355-54 26.71c0 13.354 54 13.354 54 26.709" stroke="#000C24" stroke-width="3" stroke-miterlimit="10" stroke-linecap="round"/><path d="M56 0C56 13.355 2 13.355 2 26.71c0 13.354 54 13.354 54 26.709S2 66.774 2 80.097c0 13.355 54 13.355 54 26.678 0 13.355-54 13.355-54 26.678 0 13.355 54 13.355 54 26.709 0 13.355-54 13.355-54 26.71 0 13.354 54 13.354 54 26.709s-54 13.355-54 26.71C2 253.645 56 253.645 56 267" stroke="#000C24" stroke-width="3" stroke-miterlimit="10" stroke-linecap="round"/></svg>