<svg xmlns="http://www.w3.org/2000/svg" xmlns:xlink="http://www.w3.org/1999/xlink"><defs><clipPath id="clip0_3_188"><path transform="translate(.353)" d="M0 0h20v20H0z"/></clipPath><clipPath id="clip0_11_2"><path fill="#fff" d="M0 0h110v269H0z"/></clipPath><clipPath id="clip0_3_192"><path transform="translate(.353)" d="M0 0h22v20H0z"/></clipPath></defs><symbol id="email"><path fill-rule="evenodd" clip-rule="evenodd" d="M6.5 12a5.5 5.5 0 1111 0 5.5 5.5 0 01-11 0zM12 8.5a3.5 3.5 0 100 7 3.5 3.5 0 000-7z"/><path fill-rule="evenodd" clip-rule="evenodd" d="M12 3.25a8.75 8.75 0 000 17.5 1 1 0 110 2C6.063 22.75 1.25 17.937 1.25 12S6.063 1.25 12 1.25 22.75 6.063 22.75 12c0 1.123-.2 2.748-.72 4.129C21.542 17.417 20.564 19 18.75 19c-.89 0-1.773-.233-2.41-.939-.619-.684-.84-1.632-.84-2.686V8.25a1 1 0 112 0v7.125c0 .82.179 1.185.323 1.345.125.138.366.28.927.28.435 0 .957-.383 1.408-1.578.416-1.102.592-2.477.592-3.422A8.75 8.75 0 0012 3.25z"/></symbol><symbol id="github"><path d="M14.653 21.966c-.6 0-1-.4-1-1v-4.3c0-.8 0-.8-.3-1.1-.3-.3-.4-.7-.2-1 .1-.4.5-.6.8-.7 2.8-.3 5.4-1.2 5.4-5.7 0-1.1-.4-2.1-1.2-2.9-.3-.3-.4-.7-.2-1.1.2-.5.3-.9.3-1.4 0-.3 0-.5-.1-.8-.5.1-1.4.4-2.7 1.2-.2.1-.5.2-.8.1-2.2-.5-4.4-.5-6.6 0-.3.1-.5 0-.8-.1-1.5-.8-2.4-1.1-2.9-1.2 0 .3-.1.6-.1.8 0 .5.1 1 .3 1.4.1.4 0 .8-.2 1.1-.4.4-.7.9-.9 1.4-.2.5-.3 1-.3 1.6 0 4.2 2.2 5.3 5.4 5.7.4 0 .7.3.8.7.1.4 0 .8-.2 1-.3.3-.3.5-.3 1.4v4c0 .6-.4 1-1 1s-1-.4-1-1v-1c-3 .4-4.2-1.3-5.1-2.5-.4-.5-.7-1-1-1.1-.5-.1-.9-.7-.7-1.2.2-.5.7-.9 1.2-.7 1 .3 1.6 1.1 2.2 1.9.8 1.1 1.5 2.1 3.4 1.7v-.9c0-.4-.1-.9 0-1.5-2.8-.6-5.7-2.2-5.7-7.4 0-.8.2-1.6.5-2.3.2-.5.5-1.1.9-1.5-.1-.5-.2-1-.2-1.6 0-.8.2-1.5.5-2.2.1-.5.3-.7.6-.7.3-.1 1.7-.3 4.4 1.3 2.2-.5 4.5-.5 6.7 0 2.7-1.6 4-1.4 4.4-1.3.3.1.5.3.6.5.4.7.5 1.4.6 2.2 0 .5 0 1.1-.2 1.6.9 1.1 1.4 2.4 1.4 3.8 0 5.3-3 6.9-5.7 7.5.1.3.1.7 0 1v4.3c0 .6-.5 1-1 1z"/></symbol><symbol id="header-blop"><g fill="none"><path fill-rule="evenodd" clip-rule="evenodd" d="M-88.826 194.266c-35.622-67.798 19.73-164.26 84.258-209.806 72.377-51.086 177.132-21.497 266.223-37.576 48.052-8.672 99.709-9.925 140.08-35.75 60.119-38.459 75.895-162.457 147.105-147.962 76.488 15.569 25.307 166.017 95.983 197.442 79.758 35.462 174.626-65.221 258.655-39.762C977.474-56.73 1059.98 12.107 1053.66 84.48c-7.32 83.744-150.148 104.661-180.519 183.756-24.777 64.526 89.2 157.239 32.746 201.078-66.236 51.435-189.819-83.461-253.703-29.496-88.069 74.396 24.371 283.574-88.376 318.465-98.89 30.603-78.294-206.881-177.649-236.14C285.498 492.501 30.554 722.273-44.565 653.062c-77.323-71.241 125.623-195.728 85.759-290.065-37.33-88.34-85.223-83.468-130.02-168.731z" fill="#000C24"/></g></symbol><symbol id="link-active"><g fill="none"><path fill-rule="evenodd" clip-rule="evenodd" d="M70.333 40.468c7.793 7.71 23.525 7.276 27.409 17.565 2.322 6.153-11.616 6.226-18.08 7.149-5.322.76-11.925-6.044-15.822-2.311-6.03 5.775 1.256 26.057-6.8 23.98-9.598-2.474-.52-23.74-9.405-28.158C40.533 55.16 35.6 76.5 28.625 72.719c-6.43-3.486 11.762-16.31 6.139-21.004-8.607-7.187-24.007 4.81-33.202-1.593-5.213-3.63 4.287-12.097 4.37-18.485.102-7.777-10.098-18.275-3.831-22.81 8.242-5.965 19.815 3.056 29.923 3.929 4.311.372 8.597.467 12.868-.235 3.776-.62 6.968-3.453 10.789-3.651 3.939-.205 7.572 3.115 11.468 2.494 9.272-1.478 24.4-17.765 26.602-8.562C96.645 14.904 78.845 22.3 72.287 32.846c-1.394 2.242-3.827 5.768-1.954 7.622z" fill="#fff"/></g></symbol><symbol id="linkedin"><g clip-path="url(#clip0_3_188)"><path d="M20.348 20h.005v-7.336c0-3.588-.773-6.352-4.968-6.352-2.017 0-3.37 1.106-3.922 2.155h-.059v-1.82H7.427v13.352h4.141v-6.611c0-1.741.33-3.425 2.486-3.425 2.124 0 2.156 1.987 2.156 3.536V20h4.138zM.682 6.647H4.83V20H.682V6.647zM2.754 0A2.402 2.402 0 00.353 2.402c0 1.325 1.075 2.424 2.401 2.424 1.326 0 2.402-1.098 2.402-2.424A2.403 2.403 0 002.754 0z"/></g></symbol><symbol id="logo"><g fill="none"><path d="M15.5 40.075V26.186a8 8 0 011.353-4.451l2.654-3.963a8 8 0 016.647-3.549h3.902a8 8 0 015.908 2.607l4.23 4.634a8 8 0 012.092 5.393V45a8 8 0 01-8 8H11a8 8 0 01-8-8V11a8 8 0 018-8h33.333a8 8 0 017.997 7.77l.434 15.133a8 8 0 01-7.997 8.23H15.5" stroke="currentColor" stroke-width="6" stroke-linecap="round"/></g></symbol><symbol id="portfolio-link"><path d="M11.4 5.943h-1.13a.742.742 0 01-.51-1.282l3.14-2.963.529-.428A5.712 5.712 0 0117.021 0h.098a5.271 5.271 0 014.395 2.36l.068.103a4.85 4.85 0 01.53 4.296l-.06.17a5.603 5.603 0 01-1.438 2.209L15.9 13.584a5.193 5.193 0 01-6.83.261l-.495-.401a1.377 1.377 0 01-.297-.333l-.039-.06a1.31 1.31 0 011.105-2.013h.085c.307 0 .608.086.868.25l.502.316.656.464a2.097 2.097 0 002.65-.187l4.695-4.43c.453-.426.75-.993.843-1.608l.015-.096a2.526 2.526 0 00-1.42-2.663l-.384-.18a2.39 2.39 0 00-2.292.138l-.293.184a4.47 4.47 0 00-.513.377l-2.3 1.952c-.295.25-.67.388-1.057.388z"/><path d="M11.1 15.957h1.13a.743.743 0 01.51 1.283L9.6 20.201l-.529.427a5.712 5.712 0 01-3.592 1.27h-.098A5.271 5.271 0 01.986 19.54l-.068-.104a4.851 4.851 0 01-.53-4.295l.06-.17c.297-.84.79-1.598 1.438-2.21L6.6 8.317a5.193 5.193 0 016.83-.261l.495.401c.117.094.217.206.297.332l.039.062a1.31 1.31 0 01-1.105 2.012h-.085c-.307 0-.608-.087-.868-.25l-.502-.316-.656-.464a2.097 2.097 0 00-2.65.187l-4.695 4.43c-.453.426-.75.993-.843 1.608l-.014.096a2.526 2.526 0 001.42 2.663l.383.18a2.39 2.39 0 002.292-.138l.293-.184c.18-.113.351-.24.513-.377l2.3-1.952c.295-.25.67-.388 1.057-.388z"/></symbol><symbol id="shape"><g fill="none"><g clip-path="url(#clip0_11_2)" stroke="#000C24" stroke-opacity=".1" stroke-width="3" stroke-miterlimit="10" stroke-linecap="round"><path d="M108 0c0 13.355-54 13.355-54 26.71 0 13.354 54 13.354 54 26.709S54 66.774 54 80.097c0 13.355 54 13.355 54 26.678 0 13.355-54 13.355-54 26.678 0 13.355 54 13.355 54 26.709 0 13.355-54 13.355-54 26.71 0 13.354 54 13.354 54 26.709s-54 13.355-54 26.71c0 13.354 54 13.354 54 26.709"/><path d="M81 0c0 13.355-54 13.355-54 26.71 0 13.354 54 13.354 54 26.709S27 66.774 27 80.097c0 13.355 54 13.355 54 26.678 0 13.355-54 13.355-54 26.678 0 13.355 54 13.355 54 26.709 0 13.355-54 13.355-54 26.71 0 13.354 54 13.354 54 26.709s-54 13.355-54 26.71c0 13.354 54 13.354 54 26.709"/><path d="M56 0C56 13.355 2 13.355 2 26.71c0 13.354 54 13.354 54 26.709S2 66.774 2 80.097c0 13.355 54 13.355 54 26.678 0 13.355-54 13.355-54 26.678 0 13.355 54 13.355 54 26.709 0 13.355-54 13.355-54 26.71 0 13.354 54 13.354 54 26.709s-54 13.355-54 26.71C2 253.645 56 253.645 56 267"/></g></g></symbol><symbol id="telegram"><g clip-path="url(#clip0_3_192)"><path d="M8.985 13.181l-.364 5.584c.52 0 .746-.244 1.017-.537l2.44-2.545 5.06 4.041c.927.564 1.58.267 1.83-.93L22.29 1.82C22.585.323 21.795-.262 20.89.105L1.374 8.257C.042 8.821.062 9.631 1.147 9.998l4.99 1.693 11.59-7.91c.545-.395 1.041-.177.633.217l-9.375 9.183z"/></g></symbol><symbol id="up-btn"><g fill="none"><circle cx="27" cy="27" r="25" fill="#fff"/><path d="M27 35.75v-15M27 52c13.807 0 25-11.193 25-25S40.807 2 27 2 2 13.193 2 27s11.193 25 25 25z" stroke="#000C24" stroke-width="3" stroke-linecap="round" stroke-linejoin="round"/><path d="M19.5 25.75l7.5-7.5 7.5 7.5" stroke="#000C24" stroke-width="3" stroke-linecap="round" stroke-linejoin="round"/></g></symbol></svg>